# xmcd CD database file
#
# Track frame offsets:
#	150
#	18725
#	39568
#	57001
#	77523
#	94724
#	111813
#	124280
#	139248
#	155598
#
# Disc length: 2307 seconds
#
# Revision: 0
# Processed by: cddbd v1.5.2PL0 Copyright (c) Steve Scherf et al.
# Submitted via: CDex 1.70beta2
#
DISCID=8009010a
DTITLE=THE GREEN TEA - 설레임
DYEAR=2008
DGENRE=Jazz
TTITLE0=Green Tea
TTITLE1=Love Is Magic - feat. Anders Edenroth (The Real Group)
TTITLE2=미미는 외로워
TTITLE3=천생연분
TTITLE4=Big Mouth
TTITLE5=설레임
TTITLE6=들어봐요
TTITLE7=Do It Now
TTITLE8=Love Is Magic 2 - feat. Margareta Bengtson (The Real Group)
TTITLE9=설레임 (Cloud Remix)
EXTD=YEAR: 2008
EXTT0=
EXTT1=
EXTT2=
EXTT3=
EXTT4=
EXTT5=
EXTT6=
EXTT7=
EXTT8=
EXTT9=
PLAYORDER=
